<svg width="24" height="24" viewBox="0 0 24 24" fill="none" xmlns="http://www.w3.org/2000/svg">
<rect width="24" height="24" rx="12" fill="white"/>
<path fill-rule="evenodd" clip-rule="evenodd" d="M17.6004 11.9996C17.6004 15.0924 15.0932 17.5996 12.0004 17.5996C8.90759 17.5996 6.40039 15.0924 6.40039 11.9996C6.40039 10.2076 10.1604 9.45561 13.3252 9.73881C13.6612 9.64921 14.0228 9.59961 14.4004 9.59961C16.1684 9.59961 17.6004 10.6748 17.6004 11.9996Z" fill="#232C80"/>
<path fill-rule="evenodd" clip-rule="evenodd" d="M11.2004 11.2004C11.2004 11.2004 12.6324 9.60039 14.4004 9.60039C16.1684 9.60039 17.6004 10.6756 17.6004 12.0004C17.6004 8.90759 15.0932 6.40039 12.0004 6.40039C9.76519 6.40039 7.83559 7.70919 6.93799 9.60359C6.40039 11.2004 6.40039 11.6676 6.40039 12.0004C7.20039 12.8004 8.08999 12.8004 8.80039 12.8004C9.51079 12.8004 10.1492 12.4916 10.5892 12.0004L11.2004 11.2004Z" fill="#F93939"/>
<path fill-rule="evenodd" clip-rule="evenodd" d="M19.1996 7.9998H22.3996L19.1996 4.7998H17.5996L19.1996 7.9998ZM4.79961 7.9998H1.59961L4.79961 4.7998H6.39961L4.79961 7.9998ZM19.1996 15.9998H22.3996L19.1996 19.1998H17.5996L19.1996 15.9998ZM4.79961 15.9998H1.59961L4.79961 19.1998H6.39961L4.79961 15.9998Z" fill="#151515"/>
</svg>
