<svg width="24" height="24" viewBox="0 0 24 24" fill="none" xmlns="http://www.w3.org/2000/svg">
<g id="Flags">
<g clip-path="url(#clip0_26_1736)">
<rect width="24" height="24" rx="12" fill="#F93939"/>
<path id="Vector" fill-rule="evenodd" clip-rule="evenodd" d="M-3.2002 0H7.9998V24H-3.2002V0Z" fill="#249F58"/>
<path id="Vector_2" d="M8.0002 16.0004C10.6512 16.0004 12.8002 13.8514 12.8002 11.2004C12.8002 8.54942 10.6512 6.40039 8.0002 6.40039C5.34923 6.40039 3.2002 8.54942 3.2002 11.2004C3.2002 13.8514 5.34923 16.0004 8.0002 16.0004Z" fill="#FFDA2C"/>
<path id="Vector_3" fill-rule="evenodd" clip-rule="evenodd" d="M11.1998 12.8V8H4.7998V12.8C4.7998 13.6832 6.2318 14.4 7.9998 14.4C9.7678 14.4 11.1998 13.6832 11.1998 12.8Z" fill="#F93939"/>
<path id="Vector_4" fill-rule="evenodd" clip-rule="evenodd" d="M6.40039 9.59961H9.60039V12.7996H6.40039V9.59961Z" fill="white"/>
<path id="Vector_5" fill-rule="evenodd" clip-rule="evenodd" d="M6.40039 9.59961H8.00039V11.1996H6.40039V9.59961ZM8.00039 11.1996H9.60039V12.7996H8.00039V11.1996Z" fill="#1A47B8"/>
</g>
</g>
<defs>
<clipPath id="clip0_26_1736">
<rect width="24" height="24" rx="12" fill="white"/>
</clipPath>
</defs>
</svg>
